PathFileType	4	(X/Y/Z)	E:/New_biomech_experiments/27_06_2024_Shreyas_Arm26_updated ground/Afternoon session/Neeraj_PP_27_6_24_elbow_flexion_t01.trc										
DataRate	CameraRate	NumFrames	NumMarkers	Units	OrigDataRate	OrigDataStartFrame	OrigNumFrames						
120	120	64	4	m	120	3263	6524						
Frame#	Time	r_acromion			r_humerus_epicondyle			r_radius_styloid			RHAND		
		X1	Y1	Z1	X2	Y2	Z2	X3	Y3	Z3	X4	Y4	Z4
													
3263	27.183	-0.01063	0.87886	0.23693	-0.00994	0.54689	0.27551	0.11777	0.75444	0.22518	0.12681	0.83394	0.1666
3264	27.192	-0.01061	0.87885	0.23692	-0.00998	0.54688	0.27552	0.11779	0.75441	0.22518	0.12683	0.83389	0.16657
3265	27.2	-0.01059	0.87885	0.23691	-0.01001	0.54688	0.27553	0.11781	0.75438	0.22517	0.12686	0.83385	0.16654
3266	27.208	-0.01057	0.87885	0.2369	-0.01004	0.54688	0.27555	0.11783	0.75435	0.22515	0.12689	0.83381	0.1665
3267	27.217	-0.01055	0.87884	0.23689	-0.01007	0.54688	0.27557	0.11786	0.75432	0.22514	0.12694	0.83376	0.16645
3268	27.225	-0.01054	0.87884	0.23687	-0.01009	0.54689	0.2756	0.11789	0.75428	0.22512	0.12699	0.8337	0.1664
3269	27.233	-0.01052	0.87885	0.23686	-0.01012	0.54689	0.27563	0.11793	0.75425	0.2251	0.12705	0.83365	0.16635
3270	27.242	-0.01052	0.87885	0.23685	-0.01014	0.5469	0.27567	0.11798	0.75421	0.22508	0.12713	0.83358	0.16631
3271	27.25	-0.01051	0.87885	0.23683	-0.01016	0.54691	0.27571	0.11803	0.75417	0.22506	0.12721	0.83352	0.16626
3272	27.258	-0.01051	0.87885	0.23682	-0.01017	0.54692	0.27575	0.11809	0.75413	0.22504	0.12729	0.83345	0.16621
3273	27.267	-0.01051	0.87884	0.2368	-0.01019	0.54693	0.2758	0.11815	0.75409	0.22502	0.12738	0.83338	0.16615
3274	27.275	-0.01051	0.87884	0.23678	-0.0102	0.54693	0.27584	0.1182	0.75405	0.225	0.12747	0.83331	0.1661
3275	27.283	-0.0105	0.87884	0.23677	-0.0102	0.54694	0.27589	0.11826	0.75402	0.22499	0.12755	0.83325	0.16605
3276	27.292	-0.01049	0.87884	0.23675	-0.01021	0.54695	0.27594	0.11831	0.75398	0.22497	0.12763	0.8332	0.16601
3277	27.3	-0.01048	0.87884	0.23674	-0.01021	0.54696	0.27598	0.11837	0.75395	0.22497	0.1277	0.83315	0.16598
3278	27.308	-0.01047	0.87884	0.23673	-0.0102	0.54697	0.27602	0.11841	0.75393	0.22496	0.12776	0.83311	0.16596
3279	27.317	-0.01046	0.87884	0.23671	-0.0102	0.54698	0.27606	0.11845	0.75391	0.22495	0.1278	0.83308	0.16594
3280	27.325	-0.01045	0.87885	0.2367	-0.0102	0.54699	0.27609	0.11849	0.75389	0.22495	0.12784	0.83306	0.16593
3281	27.333	-0.01044	0.87886	0.23669	-0.01019	0.547	0.27612	0.11852	0.75388	0.22494	0.12786	0.83305	0.16592
3282	27.342	-0.01044	0.87887	0.23668	-0.01018	0.54701	0.27613	0.11854	0.75388	0.22493	0.12788	0.83304	0.16591
3283	27.35	-0.01043	0.87888	0.23667	-0.01018	0.54702	0.27614	0.11856	0.75389	0.22493	0.12789	0.83303	0.16591
3284	27.358	-0.01043	0.87889	0.23666	-0.01017	0.54703	0.27615	0.11858	0.75389	0.22492	0.1279	0.83303	0.1659
3285	27.367	-0.01043	0.8789	0.23666	-0.01015	0.54703	0.27615	0.1186	0.7539	0.22491	0.12791	0.83304	0.16589
3286	27.375	-0.01043	0.87891	0.23665	-0.01014	0.54704	0.27615	0.11862	0.75391	0.2249	0.12792	0.83305	0.16588
3287	27.383	-0.01043	0.87892	0.23665	-0.01013	0.54704	0.27614	0.11864	0.75392	0.2249	0.12793	0.83305	0.16587
3288	27.392	-0.01044	0.87892	0.23664	-0.01011	0.54703	0.27613	0.11866	0.75393	0.22489	0.12795	0.83306	0.16585
3289	27.4	-0.01044	0.87893	0.23663	-0.01009	0.54703	0.27613	0.11869	0.75393	0.22488	0.12797	0.83306	0.16585
3290	27.408	-0.01044	0.87893	0.23663	-0.01007	0.54702	0.27612	0.11873	0.75393	0.22487	0.128	0.83306	0.16586
3291	27.417	-0.01044	0.87893	0.23662	-0.01005	0.54701	0.27611	0.11877	0.75393	0.22487	0.12803	0.83306	0.16588
3292	27.425	-0.01044	0.87893	0.23661	-0.01002	0.547	0.2761	0.11881	0.75392	0.22487	0.12807	0.83306	0.16591
3293	27.433	-0.01043	0.87893	0.23661	-0.01	0.54699	0.2761	0.11886	0.75391	0.22487	0.1281	0.83305	0.16595
3294	27.442	-0.01042	0.87893	0.2366	-0.00997	0.54699	0.27609	0.11891	0.75391	0.22487	0.12813	0.83305	0.16599
3295	27.45	-0.01041	0.87894	0.23659	-0.00994	0.54698	0.27609	0.11896	0.7539	0.22487	0.12816	0.83305	0.16602
3296	27.458	-0.0104	0.87894	0.23658	-0.00991	0.54698	0.27609	0.119	0.7539	0.22487	0.1282	0.83305	0.16604
3297	27.467	-0.01038	0.87895	0.23657	-0.00989	0.54698	0.27609	0.11905	0.75391	0.22487	0.12823	0.83304	0.16604
3298	27.475	-0.01036	0.87897	0.23656	-0.00987	0.54698	0.2761	0.11908	0.75391	0.22486	0.12826	0.83304	0.16601
3299	27.483	-0.01035	0.87898	0.23655	-0.00985	0.54698	0.27611	0.11912	0.75392	0.22485	0.12829	0.83304	0.16598
3300	27.492	-0.01033	0.87899	0.23654	-0.00983	0.54699	0.27613	0.11916	0.75392	0.22483	0.12834	0.83303	0.16594
3301	27.5	-0.0103	0.879	0.23652	-0.0098	0.547	0.27615	0.11921	0.75391	0.22481	0.12839	0.83302	0.1659
3302	27.508	-0.01027	0.87901	0.2365	-0.00978	0.54701	0.27617	0.11928	0.7539	0.2248	0.12845	0.833	0.16588
3303	27.517	-0.01024	0.87903	0.23649	-0.00975	0.54702	0.2762	0.11935	0.75388	0.22478	0.12852	0.83297	0.16588
3304	27.525	-0.0102	0.87904	0.23647	-0.00972	0.54702	0.27623	0.11944	0.75385	0.22476	0.1286	0.83294	0.1659
3305	27.533	-0.01016	0.87905	0.23645	-0.00969	0.54703	0.27625	0.11954	0.75381	0.22475	0.12869	0.8329	0.16594
3306	27.542	-0.01011	0.87907	0.23644	-0.00966	0.54703	0.27626	0.11964	0.75377	0.22474	0.12878	0.83285	0.166
3307	27.55	-0.01006	0.87908	0.23643	-0.00963	0.54703	0.27627	0.11975	0.75372	0.22473	0.12889	0.83281	0.16606
3308	27.558	-0.01002	0.8791	0.23642	-0.00961	0.54703	0.27626	0.11986	0.75367	0.22472	0.12899	0.83277	0.16612
3309	27.567	-0.00998	0.87912	0.23641	-0.00958	0.54703	0.27624	0.11995	0.75363	0.22472	0.1291	0.83273	0.16617
3310	27.575	-0.00994	0.87913	0.2364	-0.00957	0.54702	0.27621	0.12004	0.75359	0.22472	0.12921	0.8327	0.16621
3311	27.583	-0.00991	0.87915	0.2364	-0.00955	0.54702	0.27616	0.12012	0.75356	0.22471	0.12932	0.83268	0.16624
3312	27.592	-0.00989	0.87917	0.2364	-0.00953	0.54701	0.2761	0.12019	0.75354	0.22471	0.12942	0.83267	0.16627
3313	27.6	-0.00986	0.87918	0.2364	-0.00951	0.547	0.27602	0.12024	0.75353	0.22471	0.12951	0.83267	0.1663
3314	27.608	-0.00985	0.87919	0.2364	-0.00949	0.54698	0.27593	0.12029	0.75352	0.22471	0.12958	0.83268	0.16633
3315	27.617	-0.00983	0.87921	0.23641	-0.00946	0.54696	0.27583	0.12032	0.75352	0.22472	0.12964	0.83269	0.16637
3316	27.625	-0.00981	0.87921	0.23642	-0.00943	0.54693	0.27572	0.12035	0.75352	0.22472	0.12968	0.83272	0.16642
3317	27.633	-0.0098	0.87922	0.23643	-0.0094	0.5469	0.27561	0.12036	0.75352	0.22472	0.1297	0.83275	0.16647
3318	27.642	-0.00979	0.87922	0.23644	-0.00937	0.54686	0.2755	0.12037	0.75353	0.22473	0.1297	0.83278	0.16651
3319	27.65	-0.00978	0.87922	0.23644	-0.00933	0.54682	0.27539	0.12037	0.75355	0.22473	0.12968	0.83281	0.16654
3320	27.658	-0.00978	0.87921	0.23645	-0.0093	0.54679	0.27529	0.12036	0.75356	0.22473	0.12965	0.83285	0.16656
3321	27.667	-0.00978	0.8792	0.23645	-0.00927	0.54675	0.2752	0.12034	0.75358	0.22472	0.12961	0.83288	0.16656
3322	27.675	-0.00978	0.87919	0.23644	-0.00924	0.54672	0.27513	0.12033	0.7536	0.22471	0.12957	0.83291	0.16654
3323	27.683	-0.00978	0.87918	0.23644	-0.00921	0.54669	0.27508	0.12031	0.75362	0.2247	0.12953	0.83294	0.16651
3324	27.692	-0.00978	0.87917	0.23643	-0.00918	0.54667	0.27504	0.12029	0.75365	0.22468	0.1295	0.83296	0.16647
3325	27.7	-0.00978	0.87917	0.23642	-0.00916	0.54666	0.27502	0.12028	0.75367	0.22465	0.12947	0.83298	0.16642
3326	27.708	-0.00977	0.87916	0.2364	-0.00914	0.54665	0.27502	0.12027	0.75368	0.22463	0.12944	0.83299	0.16636
